<?xml version="1.0" encoding="UTF-8"?>
<svg width="700pt" height="700pt" version="1.1" viewBox="0 0 700 700" xmlns="http://www.w3.org/2000/svg">
 <path d="m350 315c-77.191 0-140-62.809-140-140s62.809-140 140-140 140 62.809 140 140-62.809 140-140 140zm0-245c-57.906 0-105 47.094-105 105s47.094 105 105 105 105-47.094 105-105-47.094-105-105-105zm157.5 472.5h-315c-28.945 0-52.5-23.555-52.5-52.5v-52.5c0-48.246 39.254-87.5 87.5-87.5h245c48.246 0 87.5 39.254 87.5 87.5v52.5c0 28.945-23.555 52.5-52.5 52.5zm-280-157.5c-28.945 0-52.5 23.555-52.5 52.5v52.5c0 9.6406 7.8594 17.5 17.5 17.5h315c9.6406 0 17.5-7.8594 17.5-17.5v-52.5c0-28.945-23.555-52.5-52.5-52.5z"/>
</svg>
