<?xml version="1.0" encoding="UTF-8"?>
<svg width="700pt" height="700pt" version="1.1" viewBox="0 0 700 700" xmlns="http://www.w3.org/2000/svg">
 <g>
  <path d="m116.67 87.5h50.867c2.7852 0.03125 5.1875 1.957 5.832 4.668l62.301 312.43c1.8789 9.2656 6.8984 17.598 14.211 23.59 7.3125 5.9961 16.465 9.2812 25.922 9.3086h260.87c6.25 0 12.027-3.3359 15.152-8.75 3.1289-5.4141 3.1289-12.086 0-17.5-3.125-5.4141-8.9023-8.75-15.152-8.75h-260.87c-2.7852-0.03125-5.1914-1.957-5.8359-4.668l-6.0664-30.332h244.77c11.941 0.12109 23.562-3.875 32.91-11.309 9.3477-7.4375 15.852-17.859 18.422-29.523l37.332-168.7c1.5039-8.2539-0.62109-16.754-5.832-23.332-5.6055-7.1406-14.258-11.207-23.332-10.965h-353.27l-7.2305-38.27c-1.8828-9.2656-6.9023-17.598-14.211-23.59-7.3125-5.9961-16.469-9.2812-25.922-9.3086h-50.867c-6.2539 0-12.031 3.3359-15.156 8.75s-3.125 12.086 0 17.5 8.9023 8.75 15.156 8.75zm444.73 70-35.699 161.23h-0.003906c-0.84766 3.8906-3 7.375-6.0977 9.875-3.0938 2.5039-6.9531 3.875-10.934 3.8906h-252l-35-175z"/>
  <path d="m501.67 478.33c0 19.332-15.672 35-35 35-19.332 0-35-15.668-35-35 0-19.328 15.668-35 35-35 19.328 0 35 15.672 35 35"/>
  <path d="m338.33 478.33c0 19.332-15.668 35-35 35-19.328 0-35-15.668-35-35 0-19.328 15.672-35 35-35 19.332 0 35 15.672 35 35"/>
 </g>
</svg>
